HIERARCHY
ROOT Root
{
  OFFSET 0.0 0.0 0.0
  CHANNELS 6 Xposition Yposition Zposition Zrotation Yrotation Xrotation
  JOINT Hips
  {
    OFFSET 0.0 100.0 0.0
    CHANNELS 6 Xposition Yposition Zposition Zrotation Yrotation Xrotation
    JOINT Spine1
    {
      OFFSET -0.013727 5.003763 -0.053727
      CHANNELS 3 Zrotation Yrotation Xrotation
      JOINT Spine2
      {
        OFFSET -0.0 7.125301 -0.029825
        CHANNELS 3 Zrotation Yrotation Xrotation
        JOINT Chest
        {
          OFFSET -1e-06 7.550063 -0.815971
          CHANNELS 3 Zrotation Yrotation Xrotation
          JOINT Neck1
          {
            OFFSET -0.181677 26.311295 -0.553348
            CHANNELS 3 Zrotation Yrotation Xrotation
            JOINT Neck2
            {
              OFFSET -3e-06 7.709397 2.302585
              CHANNELS 3 Zrotation Yrotation Xrotation
              JOINT Head
              {
                OFFSET -5e-06 6.128916 1.953709
                CHANNELS 3 Zrotation Yrotation Xrotation
                JOINT HeadEnd
                {
                  OFFSET 0.003598 16.065403 -1.835379
                  CHANNELS 3 Zrotation Yrotation Xrotation
                }
                JOINT Jaw
                {
                  OFFSET 0.002637 0.475592 3.094941
                  CHANNELS 3 Zrotation Yrotation Xrotation
                }
                JOINT LeftEye
                {
                  OFFSET 3.206381 5.380205 7.586883
                  CHANNELS 3 Zrotation Yrotation Xrotation
                }
                JOINT RightEye
                {
                  OFFSET -3.22244 5.361869 7.558234
                  CHANNELS 3 Zrotation Yrotation Xrotation
                }
              }
            }
          }
          JOINT LeftShoulder
          {
            OFFSET 1.621652 23.237164 5.113413
            CHANNELS 3 Zrotation Yrotation Xrotation
            JOINT LeftArm
            {
              OFFSET 14.919846 2e-06 -5.502326
              CHANNELS 3 Zrotation Yrotation Xrotation
              JOINT LeftForeArm
              {
                OFFSET 28.739307 0.0 -0.002588
                CHANNELS 3 Zrotation Yrotation Xrotation
                JOINT LeftHand
                {
                  OFFSET 27.093981 -1e-06 0.002609
                  CHANNELS 3 Zrotation Yrotation Xrotation
                  JOINT LeftHandThumb1
                  {
                    OFFSET 2.276482 -1.392045 3.191413
                    CHANNELS 3 Zrotation Yrotation Xrotation
                    JOINT LeftHandThumb2
                    {
                      OFFSET 4.012836 -1.828127 1.641654
                      CHANNELS 3 Zrotation Yrotation Xrotation
                      JOINT LeftHandThumb3
                      {
                        OFFSET 2.798515 0.0 -3e-06
                        CHANNELS 3 Zrotation Yrotation Xrotation
                        JOINT LeftHandThumbEnd
                        {
                          OFFSET 3.180793 -4e-06 4e-06
                          CHANNELS 3 Zrotation Yrotation Xrotation
                        }
                      }
                    }
                  }
                  JOINT LeftHandIndex1
                  {
                    OFFSET 3.247555 -0.531998 2.296169
                    CHANNELS 3 Zrotation Yrotation Xrotation
                    JOINT LeftHandIndex2
                    {
                      OFFSET 6.364578 0.01206 0.1786
                      CHANNELS 3 Zrotation Yrotation Xrotation
                      JOINT LeftHandIndex3
                      {
                        OFFSET 3.662364 0.0 0.0
                        CHANNELS 3 Zrotation Yrotation Xrotation
                        JOINT LeftHandIndex4
                        {
                          OFFSET 2.329242 4e-06 4e-06
                          CHANNELS 3 Zrotation Yrotation Xrotation
                          JOINT LeftHandIndexEnd
                          {
                            OFFSET 2.759615 -0.180537 -0.113024
                            CHANNELS 3 Zrotation Yrotation Xrotation
                          }
                        }
                      }
                    }
                  }
                  JOINT LeftHandMiddle1
                  {
                    OFFSET 3.163495 0.240981 1.000332
                    CHANNELS 3 Zrotation Yrotation Xrotation
                    JOINT LeftHandMiddle2
                    {
                      OFFSET 6.19078 -0.259278 -1.002548
                      CHANNELS 3 Zrotation Yrotation Xrotation
                      JOINT LeftHandMiddle3
                      {
                        OFFSET 4.35652 -4e-06 -1e-06
                        CHANNELS 3 Zrotation Yrotation Xrotation
                        JOINT LeftHandMiddle4
                        {
                          OFFSET 2.996877 -8e-06 0.0
                          CHANNELS 3 Zrotation Yrotation Xrotation
                          JOINT LeftHandMiddleEnd
                          {
                            OFFSET 2.304287 -0.294569 -0.031741
                            CHANNELS 3 Zrotation Yrotation Xrotation
                          }
                        }
                      }
                    }
                  }
                  JOINT LeftHandRing1
                  {
                    OFFSET 2.882643 -0.053652 -0.322543
                    CHANNELS 3 Zrotation Yrotation Xrotation
                    JOINT LeftHandRing2
                    {
                      OFFSET 5.854541 -0.486202 -1.373841
                      CHANNELS 3 Zrotation Yrotation Xrotation
                      JOINT LeftHandRing3
                      {
                        OFFSET 4.350578 0.0 3e-06
                        CHANNELS 3 Zrotation Yrotation Xrotation
                        JOINT LeftHandRing4
                        {
                          OFFSET 2.651321 7e-06 2e-06
                          CHANNELS 3 Zrotation Yrotation Xrotation
                          JOINT LeftHandRingEnd
                          {
                            OFFSET 1.936105 0.077687 -7.1e-05
                            CHANNELS 3 Zrotation Yrotation Xrotation
                          }
                        }
                      }
                    }
                  }
                  JOINT LeftHandPinky1
                  {
                    OFFSET 2.8655 -0.310005 -1.600378
                    CHANNELS 3 Zrotation Yrotation Xrotation
                    JOINT LeftHandPinky2
                    {
                      OFFSET 5.087849 -1.331141 -1.77123
                      CHANNELS 3 Zrotation Yrotation Xrotation
                      JOINT LeftHandPinky3
                      {
                        OFFSET 3.070974 4e-06 0.0
                        CHANNELS 3 Zrotation Yrotation Xrotation
                        JOINT LeftHandPinky4
                        {
                          OFFSET 1.549672 0.0 1e-06
                          CHANNELS 3 Zrotation Yrotation Xrotation
                          JOINT LeftHandPinkyEnd
                          {
                            OFFSET 1.944893 -0.157802 0.057219
                            CHANNELS 3 Zrotation Yrotation Xrotation
                          }
                        }
                      }
                    }
                  }
                }
              }
            }
          }
          JOINT RightShoulder
          {
            OFFSET -1.380118 23.180309 5.214158
            CHANNELS 3 Zrotation Yrotation Xrotation
            JOINT RightArm
            {
              OFFSET -15.037196 1.2e-05 -5.545604
              CHANNELS 3 Zrotation Yrotation Xrotation
              JOINT RightForeArm
              {
                OFFSET -28.736639 2e-06 -0.002597
                CHANNELS 3 Zrotation Yrotation Xrotation
                JOINT RightHand
                {
                  OFFSET -27.133619 -0.0 0.002613
                  CHANNELS 3 Zrotation Yrotation Xrotation
                  JOINT RightHandThumb1
                  {
                    OFFSET -2.274032 -1.383988 3.163127
                    CHANNELS 3 Zrotation Yrotation Xrotation
                    JOINT RightHandThumb2
                    {
                      OFFSET -4.011429 -1.827466 1.640914
                      CHANNELS 3 Zrotation Yrotation Xrotation
                      JOINT RightHandThumb3
                      {
                        OFFSET -2.794935 -4e-06 -3e-06
                        CHANNELS 3 Zrotation Yrotation Xrotation
                        JOINT RightHandThumbEnd
                        {
                          OFFSET -3.183852 4e-06 1e-06
                          CHANNELS 3 Zrotation Yrotation Xrotation
                        }
                      }
                    }
                  }
                  JOINT RightHandIndex1
                  {
                    OFFSET -3.253266 -0.520057 2.282866
                    CHANNELS 3 Zrotation Yrotation Xrotation
                    JOINT RightHandIndex2
                    {
                      OFFSET -6.341917 0.012471 0.178266
                      CHANNELS 3 Zrotation Yrotation Xrotation
                      JOINT RightHandIndex3
                      {
                        OFFSET -3.654871 -8e-06 -0.0
                        CHANNELS 3 Zrotation Yrotation Xrotation
                        JOINT RightHandIndex4
                        {
                          OFFSET -2.327586 0.0 1e-06
                          CHANNELS 3 Zrotation Yrotation Xrotation
                          JOINT RightHandIndexEnd
                          {
                            OFFSET -2.76179 -0.180656 -0.113078
                            CHANNELS 3 Zrotation Yrotation Xrotation
                          }
                        }
                      }
                    }
                  }
                  JOINT RightHandMiddle1
                  {
                    OFFSET -3.168106 0.246593 1.00103
                    CHANNELS 3 Zrotation Yrotation Xrotation
                    JOINT RightHandMiddle2
                    {
                      OFFSET -6.180828 -0.258836 -1.000895
                      CHANNELS 3 Zrotation Yrotation Xrotation
                      JOINT RightHandMiddle3
                      {
                        OFFSET -4.348901 0.0 -0.0
                        CHANNELS 3 Zrotation Yrotation Xrotation
                        JOINT RightHandMiddle4
                        {
                          OFFSET -3.00024 -4e-06 -2e-06
                          CHANNELS 3 Zrotation Yrotation Xrotation
                          JOINT RightHandMiddleEnd
                          {
                            OFFSET -2.30252 -0.29437 -0.031706
                            CHANNELS 3 Zrotation Yrotation Xrotation
                          }
                        }
                      }
                    }
                  }
                  JOINT RightHandRing1
                  {
                    OFFSET -2.88569 -0.067952 -0.308858
                    CHANNELS 3 Zrotation Yrotation Xrotation
                    JOINT RightHandRing2
                    {
                      OFFSET -5.854198 -0.48613 -1.373731
                      CHANNELS 3 Zrotation Yrotation Xrotation
                      JOINT RightHandRing3
                      {
                        OFFSET -4.33881 -4e-06 -0.0
                        CHANNELS 3 Zrotation Yrotation Xrotation
                        JOINT RightHandRing4
                        {
                          OFFSET -2.654903 -4e-06 4e-06
                          CHANNELS 3 Zrotation Yrotation Xrotation
                          JOINT RightHandRingEnd
                          {
                            OFFSET -1.933568 0.077527 -5.2e-05
                            CHANNELS 3 Zrotation Yrotation Xrotation
                          }
                        }
                      }
                    }
                  }
                  JOINT RightHandPinky1
                  {
                    OFFSET -2.866425 -0.342796 -1.584145
                    CHANNELS 3 Zrotation Yrotation Xrotation
                    JOINT RightHandPinky2
                    {
                      OFFSET -5.091371 -1.332055 -1.772385
                      CHANNELS 3 Zrotation Yrotation Xrotation
                      JOINT RightHandPinky3
                      {
                        OFFSET -3.062664 -4e-06 1e-06
                        CHANNELS 3 Zrotation Yrotation Xrotation
                        JOINT RightHandPinky4
                        {
                          OFFSET -1.546529 4e-06 -2e-06
                          CHANNELS 3 Zrotation Yrotation Xrotation
                          JOINT RightHandPinkyEnd
                          {
                            OFFSET -1.945119 -0.157718 0.057211
                            CHANNELS 3 Zrotation Yrotation Xrotation
                          }
                        }
                      }
                    }
                  }
                }
              }
            }
          }
        }
      }
    }
    JOINT LeftLeg
    {
      OFFSET 10.043214 -8.434526 2.595655
      CHANNELS 3 Zrotation Yrotation Xrotation
      JOINT LeftShin
      {
        OFFSET -1e-06 -43.221752 -0.802913
        CHANNELS 3 Zrotation Yrotation Xrotation
        JOINT LeftFoot
        {
          OFFSET 1e-06 -42.155094 -3.481523
          CHANNELS 3 Zrotation Yrotation Xrotation
          JOINT LeftToeBase
          {
            OFFSET 0.0 -5.059472 13.231529
            CHANNELS 3 Zrotation Yrotation Xrotation
            JOINT LeftToeEnd
            {
              OFFSET -0.009607 -1.647619 6.513017
              CHANNELS 3 Zrotation Yrotation Xrotation
            }
          }
        }
      }
    }
    JOINT RightLeg
    {
      OFFSET -10.047278 -8.29526 2.620317
      CHANNELS 3 Zrotation Yrotation Xrotation
      JOINT RightShin
      {
        OFFSET 1e-06 -43.362206 -0.805556
        CHANNELS 3 Zrotation Yrotation Xrotation
        JOINT RightFoot
        {
          OFFSET 2e-06 -42.117393 -3.478398
          CHANNELS 3 Zrotation Yrotation Xrotation
          JOINT RightToeBase
          {
            OFFSET -0.0 -5.079609 13.284196
            CHANNELS 3 Zrotation Yrotation Xrotation
            JOINT RightToeEnd
            {
              OFFSET 0.009532 -1.634378 6.460591
              CHANNELS 3 Zrotation Yrotation Xrotation
            }
          }
        }
      }
    }
  }
}
MOTION
Frames: 5
Frame Time: 0.03333333333333333
0.0 0.0 0.0 0.0 -0.0 0.0 16.53668 83.265182 -46.861778 7.334606 8.476089 11.567178 1.975676 -0.474568 13.776155 0.778666 0.087087 1.201745 1.842151 -1.39374 15.855289 -1.201212 2.825586 -9.18424 -1.891011 -3.961697 -3.388902 0.311209 -6.550803 -25.150898 7.7e-05 -2.3e-05 6e-06 0.012943 0.016556 -0.01616 0.711934 -3.7381 -10.620398 -0.698027 3.773026 -10.682064 -6.3161 -11.080878 13.641017 -70.291451 -14.389405 7.567933 0.471954 -30.507412 0.165219 17.058756 -1.474687 -19.317904 -5.882105 9.861286 0.702591 -10.936868 -0.360574 7.156202 0.0 8.774827 -1e-06 -15.304984 18.41687 6.429388 -1.844031 2.498505 -2.507277 -10.163594 4.678945 4.621107 -20.976013 -3e-06 1e-06 -21.226276 2.451698 -3.594001 2e-06 -6e-06 -0.0 -1.36268 2.240798 -0.746323 -21.334904 0.584909 3.008322 -13.821208 -3e-06 2e-06 -23.887159 -0.249078 -0.839483 -59.504288 2.160558 -1.07434 -0.294024 1.679688 0.833256 -14.2182 0.093215 1.30058 -34.212029 -0.287563 0.967169 -20.033201 0.964537 1.212842 0.0 0.0 0.0 -3.440385 0.788233 0.501656 -15.928179 -3.16731 2.999706 -6.338823 -1e-06 1e-06 -18.12344 3.648184 -4.90567 -4e-06 0.0 -2e-06 7.680359 13.157973 16.272533 59.666183 7.305734 11.571147 -1.04969 33.211906 -0.288853 3.789309 6.547329 -15.745461 2.243543 -5.255042 -3.180161 14.282896 -0.826596 6.952507 -1e-06 -12.690616 -1e-06 16.666412 -18.416128 2.643043 1.665668 -1.955924 -2.878301 4.727801 -4.170591 4.993927 11.020531 2e-06 -3e-06 12.109057 -3.73572 -2.866787 2e-06 -0.0 0.0 1.291987 -1.928551 -1.49809 14.800136 0.567468 3.865608 14.242581 -1.34174 -6.660663 19.631977 0.143925 -0.648249 49.121372 -0.614852 -6.563321 0.35303 -1.511152 -0.03194 20.222801 3.684311 2.316628 18.787283 4e-06 -4e-06 10.751634 -0.479868 1.397905 1e-06 -1e-06 0.0 3.273809 0.305946 -0.580112 21.48682 11.830381 2.266134 8.16293 2e-06 -2e-06 18.399092 -3.798987 -4.940581 3e-06 -1e-06 -1e-06 -1.810485 0.989742 -55.141926 -0.279824 -0.41929 70.243584 -6.220721 1.597709 -19.5569 1.68322 -1.971211 -3.206162 0.0 -0.0 2e-06 -7.092443 -8.436337 -50.689976 -0.003361 0.187147 75.56916 8.627481 -8.287093 -34.109509 -1.466534 1.019596 -1.414722 0.0 0.0 -1e-06 
0.0 0.0 0.0 0.0 -0.0 0.0 17.02639 83.355865 -46.656887 7.621752 8.942304 10.744221 1.861965 -0.367888 13.827742 0.764066 0.044993 1.050832 1.239352 -1.435861 15.571839 -1.390654 2.865828 -7.781758 -1.908895 -4.394092 -3.410959 0.534226 -7.056388 -24.836027 7.7e-05 -2.2e-05 6e-06 0.002778 0.057911 -0.025776 0.674908 -3.701433 -10.669781 -0.681573 3.818261 -10.730925 -5.565306 -11.362461 12.908182 -70.053299 -13.571741 6.385576 -0.017475 -29.988169 0.264038 17.460974 -1.739946 -20.634846 -5.88211 9.861288 0.702589 -10.936876 -0.360574 7.156208 -0.0 8.774826 -1e-06 -15.417584 18.402361 6.361872 -1.844033 2.498506 -2.507279 -10.163604 4.678946 4.621109 -20.976032 -2e-06 0.0 -21.226295 2.451697 -3.594003 2e-06 -6e-06 -1e-06 -1.362683 2.240799 -0.746324 -21.334923 0.584911 3.008322 -13.82122 -2e-06 1e-06 -23.887178 -0.249079 -0.839486 -59.580929 2.062834 -0.974385 -0.294025 1.679688 0.833256 -14.218215 0.093216 1.30058 -34.212067 -0.287564 0.967167 -20.033222 0.964537 1.212842 1e-06 0.0 -0.0 -3.44039 0.788234 0.501656 -15.928192 -3.16731 2.999707 -6.338829 -1e-06 0.0 -18.123457 3.648184 -4.905674 -4e-06 -0.0 -2e-06 6.218177 12.254528 16.349056 62.465153 4.391238 10.221731 0.246911 36.547859 -0.267673 2.952629 7.222598 -18.282482 2.243542 -5.255038 -3.180156 14.282887 -0.826594 6.9525 -2e-06 -12.690605 1e-06 16.675488 -18.548302 2.550367 1.665666 -1.955921 -2.878298 4.727798 -4.170588 4.993925 11.020524 3e-06 -2e-06 12.109051 -3.735717 -2.866785 0.0 0.0 -1e-06 1.291984 -1.928549 -1.498089 14.800125 0.567467 3.865607 14.242571 -1.341738 -6.660658 19.631968 0.143926 -0.648246 49.293228 -0.621495 -6.728366 0.353029 -1.511151 -0.031939 20.222786 3.68431 2.316628 18.78727 4e-06 -2e-06 10.751625 -0.479867 1.397905 -0.0 0.0 -0.0 3.273807 0.305948 -0.580111 21.486809 11.830376 2.266133 8.162929 2e-06 -1e-06 18.399076 -3.798985 -4.940577 3e-06 1e-06 -1e-06 -2.68629 1.407719 -53.085205 -0.28825 -0.338998 68.564789 -6.018521 0.495139 -22.062817 1.671301 -2.000759 -2.641147 0.0 -0.0 2e-06 -8.075436 -7.977337 -49.207691 0.020772 0.172442 75.407608 9.807749 -9.296302 -34.498363 -1.450495 1.043704 -1.911969 0.0 0.0 -1e-06 
0.0 0.0 0.0 0.0 -0.0 0.0 17.409225 83.97657 -46.404163 7.518242 9.130914 10.161911 1.730399 -0.313251 13.722344 0.737318 0.089971 0.918966 0.837206 -1.416228 15.169911 -1.395655 2.883304 -7.015965 -1.939186 -4.680001 -3.379012 0.604912 -7.26998 -24.581518 7.7e-05 -2.3e-05 6e-06 0.008429 0.04642 -0.02083 0.665948 -3.712322 -10.661934 -0.661587 3.805319 -10.712781 -5.270136 -11.565487 12.326577 -69.301865 -12.72245 5.689736 -0.624709 -29.305897 0.453211 16.583626 -1.847533 -20.591293 -5.882106 9.861286 0.70259 -10.936872 -0.360576 7.156203 -0.0 8.774826 -1e-06 -15.597045 18.251446 6.16728 -1.844031 2.498505 -2.507277 -10.163599 4.678944 4.621107 -20.976023 -4e-06 1e-06 -21.226286 2.451696 -3.594 1e-06 -6e-06 -1e-06 -1.362682 2.240798 -0.746323 -21.334915 0.584908 3.008322 -13.821214 -3e-06 1e-06 -23.887171 -0.24908 -0.839483 -59.579216 1.957467 -1.028278 -0.294024 1.679687 0.833256 -14.218208 0.093214 1.300579 -34.212051 -0.287566 0.96717 -20.033213 0.964535 1.212843 0.0 -0.0 -0.0 -3.440388 0.788233 0.501655 -15.928185 -3.16731 2.999705 -6.338825 -1e-06 1e-06 -18.123444 3.648183 -4.905671 -4e-06 -0.0 -2e-06 5.428447 11.795272 16.317287 63.896935 2.892207 10.003416 1.15535 38.352665 -0.005445 2.756815 7.408942 -19.736691 2.243543 -5.255042 -3.18016 14.282904 -0.826595 6.952506 -1e-06 -12.690616 -2e-06 16.658195 -18.651876 2.454244 1.665666 -1.955923 -2.8783 4.727803 -4.170591 4.993926 11.020535 2e-06 -2e-06 12.10906 -3.73572 -2.866788 0.0 0.0 -0.0 1.291987 -1.928551 -1.498089 14.800138 0.567468 3.865608 14.242581 -1.341739 -6.660663 19.631979 0.143925 -0.648247 49.2262 -0.706173 -6.867729 0.35303 -1.511152 -0.031941 20.222807 3.684312 2.316631 18.787289 4e-06 -3e-06 10.751637 -0.479868 1.397905 -0.0 -0.0 -0.0 3.273809 0.305948 -0.580111 21.486832 11.830385 2.266135 8.162935 2e-06 -1e-06 18.399097 -3.798988 -4.940582 3e-06 0.0 -1e-06 -2.983705 1.715845 -51.219215 -0.255653 -0.31928 66.704697 -6.006824 -0.061572 -22.694021 1.676724 -1.974579 -2.292215 0.0 -0.0 2e-06 -8.382925 -7.827041 -47.591087 0.003432 0.142414 74.092033 10.296661 -9.527521 -34.004314 -1.444983 1.086938 -2.279045 -0.0 0.0 -1e-06 
0.0 0.0 0.0 0.0 -0.0 0.0 17.757017 84.89035 -46.098671 7.198081 9.158162 9.553309 1.576676 -0.259275 13.537663 0.654201 0.173931 0.76219 0.538596 -1.380937 14.739631 -1.180668 2.858267 -6.491208 -1.992978 -4.821824 -3.356517 0.629106 -7.398376 -24.368366 7.7e-05 -2.2e-05 6e-06 0.01603 0.029936 -0.005445 0.669485 -3.729132 -10.644676 -0.649838 3.788551 -10.686573 -5.067774 -11.685454 12.076427 -68.388687 -12.133705 5.772704 -1.111435 -28.360218 0.623912 14.806575 -1.765222 -19.392832 -5.88211 9.861288 0.702588 -10.936878 -0.360574 7.156207 1e-06 8.774827 -1e-06 -15.851644 18.222172 6.040065 -1.844034 2.498506 -2.50728 -10.163604 4.678947 4.621109 -20.976038 -4e-06 -4e-06 -21.226301 2.451695 -3.594007 1e-06 -6e-06 -1e-06 -1.362682 2.240798 -0.746324 -21.334925 0.584911 3.008319 -13.82122 -3e-06 -2e-06 -23.887182 -0.249082 -0.839489 -59.763603 1.95776 -0.994863 -0.294024 1.679688 0.833256 -14.218216 0.093216 1.300578 -34.212067 -0.287566 0.967162 -20.033226 0.964534 1.21284 -0.0 0.0 -0.0 -3.44039 0.788234 0.501655 -15.928198 -3.167309 2.999705 -6.33883 -1e-06 -0.0 -18.123459 3.648182 -4.905677 -4e-06 -0.0 -2e-06 4.945848 11.558324 16.247128 64.64402 2.651312 10.698813 1.629191 38.999363 0.263929 2.650176 7.422346 -20.229696 2.243541 -5.255036 -3.180157 14.282887 -0.826594 6.9525 -4e-06 -12.690602 -1e-06 16.671175 -18.734064 2.38042 1.665666 -1.95592 -2.878299 4.727797 -4.170586 4.993923 11.020524 4e-06 -1e-06 12.10905 -3.735713 -2.866784 0.0 -0.0 0.0 1.291985 -1.928549 -1.498088 14.800125 0.56747 3.865605 14.242574 -1.341734 -6.660658 19.631966 0.143929 -0.648245 49.180912 -0.76063 -6.917702 0.353029 -1.51115 -0.031941 20.222788 3.684311 2.316628 18.78727 6e-06 -1e-06 10.751627 -0.479868 1.397905 -0.0 1e-06 -0.0 3.273807 0.305947 -0.580111 21.486809 11.830374 2.26613 8.162928 3e-06 0.0 18.399076 -3.798982 -4.940575 2e-06 0.0 -1e-06 -2.970624 2.007457 -49.17276 -0.238993 -0.317492 64.567955 -5.953833 -0.491435 -22.561584 1.682001 -1.942152 -2.213026 -0.0 -0.0 2e-06 -8.351014 -7.987446 -45.63884 -0.023336 0.095194 71.995514 10.362261 -9.365997 -33.160309 -1.445707 1.097564 -2.545764 -0.0 0.0 -1e-06 
0.0 0.0 0.0 0.0 -0.0 0.0 18.112215 85.93708 -45.743237 6.745368 9.063757 8.826189 1.398175 -0.204008 13.252239 0.527215 0.249168 0.558867 0.285083 -1.311848 14.301958 -0.744539 2.775583 -6.01798 -2.037107 -4.825274 -3.346308 0.557877 -7.429113 -24.2316 7.7e-05 -2.2e-05 6e-06 0.021605 0.010129 0.021143 0.674684 -3.751322 -10.625293 -0.643624 3.770774 -10.663858 -4.894601 -11.704244 12.011269 -67.552284 -11.644928 6.341086 -1.419364 -27.289186 0.719524 12.744584 -1.671206 -17.875731 -5.882109 9.861288 0.702591 -10.936876 -0.360574 7.156207 0.0 8.774828 -1e-06 -16.089357 18.271017 5.973931 -1.844033 2.498505 -2.507278 -10.163604 4.678946 4.621109 -20.976032 -4e-06 2e-06 -21.226295 2.451698 -3.594001 -1e-06 -6e-06 -0.0 -1.362682 2.240799 -0.746323 -21.334925 0.58491 3.008324 -13.82122 -3e-06 2e-06 -23.887182 -0.249079 -0.839483 -59.959225 2.006946 -0.975055 -0.294023 1.679688 0.833256 -14.218215 0.093215 1.300581 -34.212067 -0.287564 0.967171 -20.033226 0.964536 1.212844 1e-06 -0.0 0.0 -3.440389 0.788234 0.501656 -15.928192 -3.16731 2.999707 -6.338829 -1e-06 1e-06 -18.123457 3.648183 -4.905671 -4e-06 0.0 -2e-06 4.723575 11.484971 16.119444 65.060905 3.245523 11.702831 1.827178 38.859226 0.509529 2.397599 7.297286 -19.886755 2.243544 -5.25504 -3.18016 14.282904 -0.826595 6.952507 -4e-06 -12.690612 2e-06 16.750162 -18.834116 2.341151 1.665667 -1.955923 -2.878302 4.727805 -4.17059 4.993928 11.020535 4e-06 -2e-06 12.109063 -3.735717 -2.866787 1e-06 -0.0 -0.0 1.291987 -1.92855 -1.49809 14.800142 0.567469 3.865609 14.242586 -1.341735 -6.660664 19.631987 0.143927 -0.648247 49.168941 -0.790407 -6.903591 0.353029 -1.511152 -0.031941 20.222813 3.684313 2.316631 18.787292 7e-06 -3e-06 10.751639 -0.479868 1.397906 1e-06 1e-06 -0.0 3.27381 0.305947 -0.580112 21.486834 11.830383 2.266132 8.162935 2e-06 -1e-06 18.399099 -3.798985 -4.940581 3e-06 0.0 -1e-06 -2.7572 2.246729 -46.902557 -0.204418 -0.300223 62.289551 -5.834157 -0.79238 -22.093838 1.685309 -1.914524 -2.239838 0.0 -0.0 2e-06 -8.151391 -8.403754 -43.350288 -0.056624 0.04043 69.403366 10.156077 -8.907598 -32.200127 -1.447087 1.090814 -2.697405 0.0 0.0 -1e-06 
